Coordinates
version=1
nRows=29
nColumns=24
inDegrees=yes

Units are S.I. units (second, meters, Newtons, ...)
Angles are in degrees.

endheader
time	pelvis_tilt	pelvis_list	pelvis_rotation	pelvis_tx	pelvis_ty	pelvis_tz	hip_flexion_r	hip_adduction_r	hip_rotation_r	knee_angle_r	ankle_angle_r	subtalar_angle_r	mtp_angle_r	hip_flexion_l	hip_adduction_l	hip_rotation_l	knee_angle_l	ankle_angle_l	subtalar_angle_l	mtp_angle_l	lumbar_extension	lumbar_bending	lumbar_rotation
      1.23300000	     -2.08119214	      1.54964825	     -0.25774848	      0.24071206	      1.03351815	      0.26261681	     14.77206548	     -2.68297302	     -8.20864142	    -60.15923537	      1.03667643	     -7.83960333	      4.43724045	      9.14896083	      5.90865385	      5.77767212	    -11.59590466	      3.37388107	    -12.00613679	      1.44346907	     -3.61139187	     -2.61784880	      1.20481033
      1.23716667	     -2.14302733	      1.43455104	     -0.37436491	      0.24601129	      1.03410301	      0.26246199	     15.38404200	     -2.49970434	     -7.96072879	    -59.84656788	      1.79072333	     -7.82834707	      4.34247988	      8.77703563	      5.78145218	      5.74084839	    -11.37958601	      3.50127701	    -12.01368568	      1.39227603	     -3.60703718	     -2.41765700	      1.25846019
      1.24133333	     -2.18764287	      1.30210763	     -0.48780675	      0.25135219	      1.03471695	      0.26233487	     15.94877687	     -2.28680821	     -7.71924252	    -59.44137198	      2.44169793	     -7.92997643	      4.24197412	      8.37537659	      5.63310854	      5.70182573	    -11.14677714	      3.63817892	    -12.01477492	      1.33859184	     -3.59867106	     -2.22691711	      1.29339326
      1.24550000	     -2.23611749	      1.18176695	     -0.60017000	      0.25670508	      1.03529467	      0.26223168	     16.50290508	     -2.08446173	     -7.48612114	    -58.97739041	      3.03961515	     -8.09097006	      4.19385519	      7.97514235	      5.49688477	      5.64954187	    -10.90974583	      3.77493661	    -12.03256891	      1.30969266	     -3.56468804	     -2.05370098	      1.29755911
      1.24966667	     -2.27622223	      1.06267385	     -0.71755774	      0.26203099	      1.03585917	      0.26213392	     17.03768498	     -1.87927970	     -7.24344883	    -58.46112823	      3.61167436	     -8.20935462	      4.14416719	      7.56384758	      5.36279247	      5.59800687	    -10.66462993	      3.90265745	    -12.04017178	      1.27849756	     -3.56151419	     -1.87352375	      1.31414611
      1.25383333	     -2.31245166	      0.93833896	     -0.84202093	      0.26735533	      1.03641039	      0.26205619	     17.55371271	     -1.66610083	     -6.99631771	    -57.89129121	      4.19524565	     -8.19056578	      3.86819607	      7.14309484	      5.22209236	      5.53734475	    -10.40869890	      4.04385605	    -12.00212155	      1.12195736	     -3.55931374	     -1.68076793	      1.45053757
      1.25800000	     -2.36757250	      0.81518540	     -0.95379734	      0.27264212	      1.03687851	      0.26199680	     18.07616153	     -1.44518750	     -6.75719086	    -57.26186201	      4.68079478	     -8.38534106	      3.81441750	      6.75852409	      5.08452003	      5.47928662	    -10.18282136	      4.17200196	    -12.03119435	      1.08806082	     -3.55186113	     -1.50714485	      1.42442279
      1.26216667	     -2.41261641	      0.68281083	     -1.06246185	      0.27793725	      1.03735980	      0.26193828	     18.56487297	     -1.21318127	     -6.52233400	    -56.56401767	      5.12456693	     -8.52327153	      3.75231228	      6.35650214	      4.93872562	      5.42857729	     -9.94298289	      4.29645914	    -12.04733116	      1.04800020	     -3.55029103	     -1.31182426	      1.42127971
      1.26633333	     -2.46102789	      0.55204713	     -1.17065875	      0.28320509	      1.03779279	      0.26190817	     19.04551821	     -0.97681366	     -6.28365464	    -55.82531548	      5.60002069	     -8.61217136	      0.88546564	      5.96378852	      4.79395755	      5.37297701	     -9.71664944	      4.48287812	    -11.98496547	     -0.70539438	     -3.54585550	     -1.13554228	      1.56127785
      1.27050000	     -2.51965378	      0.44224284	     -1.27787156	      0.28846639	      1.03814822	      0.26187060	     19.52565483	     -0.76925361	     -6.05226049	    -55.04055907	      5.98464048	     -8.72694801	      0.88565527	      5.58249182	      4.67606013	      5.32292215	     -9.48460390	      4.61372002	    -12.03318150	     -0.70787769	     -3.53480647	     -0.96809669	      1.50774165
      1.27466667	     -2.56485106	      0.31469407	     -1.36937960	      0.29371439	      1.03851413	      0.26181906	     19.96519614	     -0.54508680	     -5.83951827	    -54.18493640	      6.32040406	     -8.84646356	      0.87992829	      5.18970972	      4.54136329	      5.28442205	     -9.25583400	      4.73523148	    -12.06971075	     -0.71534938	     -3.54225512	     -0.77811599	      1.48066876
      1.27883333	     -2.58842747	      0.18801652	     -1.45206669	      0.29894212	      1.03888172	      0.26178158	     20.35846911	     -0.31835583	     -5.62759319	    -53.26054669	      6.55516372	     -9.01368962	      0.84688273	      4.77371316	      4.40996982	      5.26889075	     -9.02361615	      4.84697037	    -12.11285142	     -0.74574703	     -3.58435741	     -0.60706827	      1.46743760
      1.28300000	     -2.63039433	      0.06134396	     -1.53023805	      0.30415680	      1.03917991	      0.26174534	     20.75554124	     -0.09422125	     -5.42556213	    -52.29010240	      6.78235076	     -9.16356829	      0.80879030	      4.38557683	      4.27906773	      5.24662858	     -8.80683557	      4.96842987	    -12.15894692	     -0.78343780	     -3.59715080	     -0.42823847	      1.45288108
      1.28716667	     -2.69833893	     -0.04799303	     -1.60020735	      0.30934030	      1.03937577	      0.26170328	     21.17019312	      0.10766318	     -5.22971748	    -51.28480443	      7.00347131	     -9.29539950	      0.77662391	      4.04063457	      4.16886420	      5.21322595	     -8.61470558	      5.08894861	    -12.21319695	     -0.81762420	     -3.58844822	     -0.27241314	      1.42996160
      1.29133333	     -2.75337546	     -0.17096601	     -1.65872329	      0.31452941	      1.03957312	      0.26164940	     21.54257558	      0.31974118	     -5.05027283	    -50.20903832	      7.15954800	     -9.44947827	      0.73990128	      3.68011447	      4.04549999	      5.19647524	     -8.42006789	      5.21441516	    -12.26500892	     -0.85500033	     -3.59169215	     -0.08972031	      1.40180546
      1.29550000	     -2.81720451	     -0.27141367	     -1.71267197	      0.31969765	      1.03970065	      0.26160681	     21.91093959	      0.50641879	     -4.87421243	    -49.09152944	      7.25807981	     -9.62888259	      0.69312937	      3.33244678	      3.94815650	      5.18802053	     -8.22618585	      5.33641734	    -12.32070450	     -0.90356601	     -3.58512019	      0.04863899	      1.36002159
      1.29966667	     -2.85735199	     -0.36941263	     -1.75619044	      0.32487111	      1.03983650	      0.26155372	     22.22987534	      0.68351600	     -4.71427605	    -47.91314536	      7.27861511	     -9.85506907	      0.61824019	      2.95087470	      3.85537541	      5.20258571	     -8.01319196	      5.45670198	    -12.38126138	     -0.98463248	     -3.60318230	      0.18693196	      1.30050913
      1.30383333	     -2.93950008	     -0.47335884	     -1.79121163	      0.33002669	      1.03986397	      0.26148930	     22.57653497	      0.86062977	     -4.57274174	    -46.69585632	      7.35815784	     -9.98468110	      0.57416977	      2.63699097	      3.75526208	      5.18730116	     -7.84466064	      5.57961809	    -12.44272070	     -1.03335030	     -3.58778334	      0.34340958	      1.25587085
      1.30800000	     -2.97815205	     -0.56340215	     -1.81224643	      0.33518588	      1.03993435	      0.26142637	     22.84477393	      1.02088799	     -4.43547562	    -45.39798509	      7.27470557	    -10.25824365	      0.49026562	      2.26576739	      3.67295338	      5.21711279	     -7.65255755	      5.69693005	    -12.50194146	     -1.12565189	     -3.60130762	      0.46278208	      1.16939024
      1.31216667	     -3.03418225	     -0.65299262	     -1.82353496	      0.34034219	      1.03994469	      0.26135044	     23.11203510	      1.17212468	     -4.32075565	    -44.05709579	      7.21397895	    -10.46980782	      0.40790156	      1.92231245	      3.59113762	      5.23331059	     -7.47678129	      5.81235170	    -12.56402664	     -1.22044719	     -3.60595803	      0.59369140	      1.08984005
      1.31633333	     -3.12322323	     -0.74045023	     -1.83042064	      0.34548794	      1.03984928	      0.26126633	     23.39898434	      1.31477041	     -4.22110899	    -42.68271997	      7.19649750	    -10.60337887	      0.35755213	      1.62780793	      3.51059618	      5.23121773	     -7.32679142	      5.93054736	    -12.61443217	     -1.27650552	     -3.58681434	      0.73804477	      1.02823893
      1.32050000	     -3.16765203	     -0.80700662	     -1.82327291	      0.35065706	      1.03979456	      0.26118333	     23.60767217	      1.42958404	     -4.13747723	    -41.23539534	      7.00738444	    -10.90552512	      0.27194952	      1.27176374	      3.45378539	      5.25341428	     -7.14720162	      6.04670526	    -12.66591735	     -1.37050942	     -3.59037195	      0.82130572	      0.91311794
      1.32466667	     -3.24270629	     -0.87315875	     -1.80900542	      0.35581661	      1.03966112	      0.26110270	     23.82590326	      1.54265775	     -4.05814810	    -39.73964251	      6.83697413	    -11.14918049	      0.17882260	      0.95958951	      3.39624874	      5.27875699	     -6.98940257	      6.15747037	    -12.70993655	     -1.47799204	     -3.57161770	      0.91796384	      0.80093258
      1.32883333	     -3.30423373	     -0.93757010	     -1.78707441	      0.36098758	      1.03952044	      0.26101664	     24.00341197	      1.64826815	     -3.99236137	    -38.19074608	      6.64406926	    -11.38313621	      0.07823112	      0.63337749	      3.34013403	      5.30319608	     -6.83289638	      6.26649676	    -12.74492105	     -1.59532253	     -3.56578753	      1.01840889	      0.68482606
      1.33300000	     -3.36143062	     -0.99254970	     -1.75802841	      0.36617699	      1.03934618	      0.26092385	     24.15340083	      1.73566311	     -3.95046381	    -36.59846833	      6.43587803	    -11.59913283	     -0.02219871	      0.30341577	      3.29423442	      5.31718954	     -6.67839661	      6.37511716	    -12.76978206	     -1.71323184	     -3.56240970	      1.10468989	      0.56974380
      1.33716667	     -3.41745591	     -1.04806677	     -1.72177098	      0.37138654	      1.03914117	      0.26083102	     24.27510030	      1.81802645	     -3.93148114	    -34.95384602	      6.20069513	    -11.80840601	     -0.12020042	     -0.02830908	      3.24603196	      5.32838920	     -6.52438361	      6.48615453	    -12.78609904	     -1.82753649	     -3.55802620	      1.18901270	      0.44966755
      1.34133333	     -3.48474275	     -1.08648527	     -1.67676731	      0.37660077	      1.03889481	      0.26074439	     24.38644782	      1.87983873	     -3.92084972	    -33.26678447	      5.94874491	    -11.99659057	     -0.21947391	     -0.34151811	      3.21505350	      5.33953300	     -6.38113521	      6.58784784	    -12.79169436	     -1.94612780	     -3.54212308	      1.25393523	      0.32186586
      1.34550000	     -3.55232581	     -1.12726057	     -1.63078573	      0.38184487	      1.03860395	      0.26066165	     24.47344877	      1.94135195	     -3.92624523	    -31.53658288	      5.67952258	    -12.16168328	     -0.31989211	     -0.65820682	      3.18041868	      5.34753635	     -6.23466276	      6.69126290	    -12.78367956	     -2.06886637	     -3.51934895	      1.32100111	      0.19105372
      1.34966667	     -3.63379561	     -1.15854876	     -1.56828485	      0.38709349	      1.03825531	      0.26055273	     24.56030023	      1.97561650	     -3.99249917	    -29.78864447	      5.46906385	    -12.18719333	     -0.38240938	     -0.94163305	      3.15565951	      5.33790749	     -6.12402641	      6.78333704	    -12.77820889	     -2.14372620	     -3.48894192	      1.38811425	      0.10407385
